<svg width="146" height="134" viewBox="0 0 146 134" fill="none" xmlns="http://www.w3.org/2000/svg">
<path d="M92.6899 54.136C86.1266 51.59 80.0991 47.972 74.2055 44.22C68.4459 40.602 62.8202 36.85 56.6587 34.17C50.4972 31.356 44.3358 30.15 37.6385 30.284C30.8073 30.284 23.8422 31.624 20.7615 33.5C21.0293 32.294 21.2972 30.954 21.6991 29.748C24.5119 19.296 29.7358 9.78201 36.7009 2.01001C24.9137 9.24601 15.2697 19.832 9.37613 32.562C7.5009 36.582 6.02751 40.736 4.95595 45.158C3.6165 50.518 2.94677 56.146 2.94677 62.042C2.94677 83.08 12.3229 102.108 27.0569 114.838C39.3798 125.558 55.4532 131.99 73 131.99C80.367 131.99 87.466 130.918 94.0293 128.774C106.352 124.888 117.068 117.786 125.372 108.272C136.222 95.944 142.919 79.73 142.919 61.908C143.053 55.61 141.982 49.58 140.508 43.818C128.319 56.816 109.299 60.568 92.6899 54.136ZM82.778 91.656H75.9468V77.854C75.9468 73.834 74.4734 72.36 71.9284 72.36C68.9816 72.36 67.6422 74.102 67.6422 77.452V91.522H60.811V77.586C60.811 74.236 59.4715 72.494 56.7926 72.494C53.8459 72.494 52.5064 74.37 52.5064 77.988V91.79H45.5413V72.226H37.2367V91.522H30.4055V72.226H26.789V66.598H30.4055V64.454C30.4055 57.486 34.6917 53.198 42.8624 53.6V59.764C39.6477 59.764 37.2367 61.372 37.2367 65.392V66.732H51.9706V68.876H52.2385C53.8459 66.866 55.989 66.062 59.2037 66.062C62.0165 66.062 64.2936 67 65.9009 69.814C67.7761 66.866 70.455 66.062 73.9376 66.062C79.6972 66.062 82.644 68.742 82.644 75.844V91.656H82.778Z" fill="#F9006E"/>
<path d="M74.0716 66.062C70.589 66.062 67.7761 67 66.0349 69.814C64.4275 66.866 62.0165 66.062 59.3376 66.062C56.1229 66.062 53.8459 66.866 52.3725 68.876H52.2385V66.732H37.5046V65.392C37.5046 61.372 39.9156 59.764 43.1303 59.764V53.6C34.9596 53.198 30.6734 57.486 30.6734 64.454V66.598H26.789V72.226H30.4055V91.522H37.2367V72.226H45.5413V91.522H52.3725V77.854C52.3725 74.37 53.7119 72.36 56.6587 72.36C59.3376 72.36 60.6771 74.236 60.6771 77.452V91.522H67.5083V77.452C67.5083 74.102 68.8477 72.36 71.7945 72.36C74.4734 72.36 75.8128 73.834 75.8128 77.854V91.656H82.644V75.844C82.778 68.742 79.6972 66.062 74.0716 66.062Z" fill="white"/>
</svg>
